<mxfile host="app.diagrams.net" agent="Mozilla/5.0 (Windows NT 10.0; Win64; x64) AppleWebKit/537.36 (KHTML, like Gecko) Chrome/135.0.0.0 Safari/537.36" version="26.2.8">
  <diagram name="Page-1" id="UpGn2O4pGhnWBMNB-rdH">
    <mxGraphModel dx="2040" dy="1081" grid="1" gridSize="10" guides="1" tooltips="1" connect="1" arrows="1" fold="1" page="1" pageScale="1" pageWidth="850" pageHeight="1100" math="0" shadow="0">
      <root>
        <mxCell id="0" />
        <mxCell id="1" parent="0" />
        <mxCell id="g-R0QMSOQ9w9aksDa-eE-1" value="Admin" style="shape=umlActor;verticalLabelPosition=bottom;verticalAlign=top;html=1;outlineConnect=0;" vertex="1" parent="1">
          <mxGeometry x="150" y="540" width="30" height="60" as="geometry" />
        </mxCell>
        <mxCell id="g-R0QMSOQ9w9aksDa-eE-2" value="Sinh viên" style="shape=umlActor;verticalLabelPosition=bottom;verticalAlign=top;html=1;outlineConnect=0;" vertex="1" parent="1">
          <mxGeometry x="1060" y="530" width="30" height="60" as="geometry" />
        </mxCell>
        <mxCell id="g-R0QMSOQ9w9aksDa-eE-7" value="Đăng nhập" style="ellipse;whiteSpace=wrap;html=1;" vertex="1" parent="1">
          <mxGeometry x="360" y="120" width="120" height="80" as="geometry" />
        </mxCell>
        <mxCell id="g-R0QMSOQ9w9aksDa-eE-8" value="Quản lí môn thi" style="ellipse;whiteSpace=wrap;html=1;" vertex="1" parent="1">
          <mxGeometry x="360" y="250" width="120" height="80" as="geometry" />
        </mxCell>
        <mxCell id="g-R0QMSOQ9w9aksDa-eE-9" value="Thêm môn thi" style="ellipse;whiteSpace=wrap;html=1;" vertex="1" parent="1">
          <mxGeometry x="590" y="150" width="120" height="80" as="geometry" />
        </mxCell>
        <mxCell id="g-R0QMSOQ9w9aksDa-eE-14" style="rounded=0;orthogonalLoop=1;jettySize=auto;html=1;dashed=1;" edge="1" parent="1" source="g-R0QMSOQ9w9aksDa-eE-10" target="g-R0QMSOQ9w9aksDa-eE-8">
          <mxGeometry relative="1" as="geometry" />
        </mxCell>
        <mxCell id="g-R0QMSOQ9w9aksDa-eE-10" value="Xoá môn thi" style="ellipse;whiteSpace=wrap;html=1;" vertex="1" parent="1">
          <mxGeometry x="590" y="260" width="120" height="80" as="geometry" />
        </mxCell>
        <mxCell id="g-R0QMSOQ9w9aksDa-eE-11" value="Cập nhật thông tin môn thi" style="ellipse;whiteSpace=wrap;html=1;" vertex="1" parent="1">
          <mxGeometry x="580" y="350" width="120" height="80" as="geometry" />
        </mxCell>
        <mxCell id="g-R0QMSOQ9w9aksDa-eE-12" style="edgeStyle=orthogonalEdgeStyle;rounded=0;orthogonalLoop=1;jettySize=auto;html=1;exitX=0.5;exitY=1;exitDx=0;exitDy=0;" edge="1" parent="1" source="g-R0QMSOQ9w9aksDa-eE-11" target="g-R0QMSOQ9w9aksDa-eE-11">
          <mxGeometry relative="1" as="geometry" />
        </mxCell>
        <mxCell id="g-R0QMSOQ9w9aksDa-eE-13" style="rounded=0;orthogonalLoop=1;jettySize=auto;html=1;entryX=1;entryY=0.6;entryDx=0;entryDy=0;entryPerimeter=0;dashed=1;" edge="1" parent="1" source="g-R0QMSOQ9w9aksDa-eE-11" target="g-R0QMSOQ9w9aksDa-eE-8">
          <mxGeometry relative="1" as="geometry" />
        </mxCell>
        <mxCell id="g-R0QMSOQ9w9aksDa-eE-15" style="rounded=0;orthogonalLoop=1;jettySize=auto;html=1;entryX=0.95;entryY=0.263;entryDx=0;entryDy=0;entryPerimeter=0;dashed=1;" edge="1" parent="1" source="g-R0QMSOQ9w9aksDa-eE-9" target="g-R0QMSOQ9w9aksDa-eE-8">
          <mxGeometry relative="1" as="geometry" />
        </mxCell>
        <mxCell id="g-R0QMSOQ9w9aksDa-eE-16" value="&amp;lt;&amp;lt;extend&amp;gt;&amp;gt;" style="text;html=1;align=center;verticalAlign=middle;resizable=0;points=[];autosize=1;strokeColor=none;fillColor=none;" vertex="1" parent="1">
          <mxGeometry x="465" y="208" width="90" height="30" as="geometry" />
        </mxCell>
        <mxCell id="g-R0QMSOQ9w9aksDa-eE-17" value="&amp;lt;&amp;lt;extend&amp;gt;&amp;gt;" style="text;html=1;align=center;verticalAlign=middle;resizable=0;points=[];autosize=1;strokeColor=none;fillColor=none;" vertex="1" parent="1">
          <mxGeometry x="500" y="270" width="90" height="30" as="geometry" />
        </mxCell>
        <mxCell id="g-R0QMSOQ9w9aksDa-eE-18" value="&amp;lt;&amp;lt;extend&amp;gt;&amp;gt;" style="text;html=1;align=center;verticalAlign=middle;resizable=0;points=[];autosize=1;strokeColor=none;fillColor=none;" vertex="1" parent="1">
          <mxGeometry x="485" y="350" width="90" height="30" as="geometry" />
        </mxCell>
        <mxCell id="g-R0QMSOQ9w9aksDa-eE-19" value="" style="endArrow=none;html=1;rounded=0;entryX=0;entryY=0.5;entryDx=0;entryDy=0;" edge="1" parent="1" target="g-R0QMSOQ9w9aksDa-eE-7">
          <mxGeometry width="50" height="50" relative="1" as="geometry">
            <mxPoint x="210" y="590" as="sourcePoint" />
            <mxPoint x="680" y="460" as="targetPoint" />
          </mxGeometry>
        </mxCell>
        <mxCell id="g-R0QMSOQ9w9aksDa-eE-20" value="" style="endArrow=none;html=1;rounded=0;entryX=0.008;entryY=0.413;entryDx=0;entryDy=0;entryPerimeter=0;" edge="1" parent="1" target="g-R0QMSOQ9w9aksDa-eE-8">
          <mxGeometry width="50" height="50" relative="1" as="geometry">
            <mxPoint x="210" y="590" as="sourcePoint" />
            <mxPoint x="370" y="170" as="targetPoint" />
          </mxGeometry>
        </mxCell>
        <mxCell id="g-R0QMSOQ9w9aksDa-eE-21" value="Quản lí bộ đề thi" style="ellipse;whiteSpace=wrap;html=1;" vertex="1" parent="1">
          <mxGeometry x="365" y="550" width="120" height="80" as="geometry" />
        </mxCell>
        <mxCell id="g-R0QMSOQ9w9aksDa-eE-22" value="Thêm bộ đề thi" style="ellipse;whiteSpace=wrap;html=1;" vertex="1" parent="1">
          <mxGeometry x="570" y="460" width="120" height="80" as="geometry" />
        </mxCell>
        <mxCell id="g-R0QMSOQ9w9aksDa-eE-26" style="rounded=0;orthogonalLoop=1;jettySize=auto;html=1;entryX=1;entryY=0.5;entryDx=0;entryDy=0;dashed=1;" edge="1" parent="1" source="g-R0QMSOQ9w9aksDa-eE-23" target="g-R0QMSOQ9w9aksDa-eE-21">
          <mxGeometry relative="1" as="geometry" />
        </mxCell>
        <mxCell id="g-R0QMSOQ9w9aksDa-eE-23" value="Xoá bộ đề thi" style="ellipse;whiteSpace=wrap;html=1;" vertex="1" parent="1">
          <mxGeometry x="575" y="570" width="120" height="80" as="geometry" />
        </mxCell>
        <mxCell id="g-R0QMSOQ9w9aksDa-eE-24" value="Cập nhật thông tin bộ đề thi" style="ellipse;whiteSpace=wrap;html=1;" vertex="1" parent="1">
          <mxGeometry x="575" y="660" width="120" height="80" as="geometry" />
        </mxCell>
        <mxCell id="g-R0QMSOQ9w9aksDa-eE-25" style="rounded=0;orthogonalLoop=1;jettySize=auto;html=1;entryX=0.967;entryY=0.325;entryDx=0;entryDy=0;entryPerimeter=0;dashed=1;exitX=0;exitY=0.5;exitDx=0;exitDy=0;" edge="1" parent="1" source="g-R0QMSOQ9w9aksDa-eE-22" target="g-R0QMSOQ9w9aksDa-eE-21">
          <mxGeometry relative="1" as="geometry" />
        </mxCell>
        <mxCell id="g-R0QMSOQ9w9aksDa-eE-27" style="rounded=0;orthogonalLoop=1;jettySize=auto;html=1;entryX=0.958;entryY=0.75;entryDx=0;entryDy=0;entryPerimeter=0;dashed=1;" edge="1" parent="1" source="g-R0QMSOQ9w9aksDa-eE-24" target="g-R0QMSOQ9w9aksDa-eE-21">
          <mxGeometry relative="1" as="geometry" />
        </mxCell>
        <mxCell id="g-R0QMSOQ9w9aksDa-eE-28" value="&amp;lt;&amp;lt;extend&amp;gt;&amp;gt;" style="text;html=1;align=center;verticalAlign=middle;resizable=0;points=[];autosize=1;strokeColor=none;fillColor=none;" vertex="1" parent="1">
          <mxGeometry x="460" y="510" width="90" height="30" as="geometry" />
        </mxCell>
        <mxCell id="g-R0QMSOQ9w9aksDa-eE-29" value="&amp;lt;&amp;lt;extend&amp;gt;&amp;gt;" style="text;html=1;align=center;verticalAlign=middle;resizable=0;points=[];autosize=1;strokeColor=none;fillColor=none;" vertex="1" parent="1">
          <mxGeometry x="485" y="560" width="90" height="30" as="geometry" />
        </mxCell>
        <mxCell id="g-R0QMSOQ9w9aksDa-eE-30" value="&amp;lt;&amp;lt;extend&amp;gt;&amp;gt;" style="text;html=1;align=center;verticalAlign=middle;resizable=0;points=[];autosize=1;strokeColor=none;fillColor=none;" vertex="1" parent="1">
          <mxGeometry x="465" y="650" width="90" height="30" as="geometry" />
        </mxCell>
        <mxCell id="g-R0QMSOQ9w9aksDa-eE-32" value="" style="endArrow=none;html=1;rounded=0;entryX=0;entryY=0.5;entryDx=0;entryDy=0;" edge="1" parent="1" target="g-R0QMSOQ9w9aksDa-eE-21">
          <mxGeometry width="50" height="50" relative="1" as="geometry">
            <mxPoint x="210" y="590" as="sourcePoint" />
            <mxPoint x="300" y="520" as="targetPoint" />
          </mxGeometry>
        </mxCell>
        <mxCell id="g-R0QMSOQ9w9aksDa-eE-34" style="edgeStyle=orthogonalEdgeStyle;rounded=0;orthogonalLoop=1;jettySize=auto;html=1;exitX=0.5;exitY=1;exitDx=0;exitDy=0;" edge="1" parent="1">
          <mxGeometry relative="1" as="geometry">
            <mxPoint x="645" y="750" as="sourcePoint" />
            <mxPoint x="645" y="750" as="targetPoint" />
          </mxGeometry>
        </mxCell>
        <mxCell id="g-R0QMSOQ9w9aksDa-eE-35" value="Quản lí câu hỏi" style="ellipse;whiteSpace=wrap;html=1;" vertex="1" parent="1">
          <mxGeometry x="370" y="870" width="120" height="80" as="geometry" />
        </mxCell>
        <mxCell id="g-R0QMSOQ9w9aksDa-eE-36" value="Thêm câu hỏi vào bộ đề" style="ellipse;whiteSpace=wrap;html=1;" vertex="1" parent="1">
          <mxGeometry x="575" y="780" width="120" height="80" as="geometry" />
        </mxCell>
        <mxCell id="g-R0QMSOQ9w9aksDa-eE-37" style="rounded=0;orthogonalLoop=1;jettySize=auto;html=1;entryX=1;entryY=0.5;entryDx=0;entryDy=0;dashed=1;" edge="1" parent="1" source="g-R0QMSOQ9w9aksDa-eE-38" target="g-R0QMSOQ9w9aksDa-eE-35">
          <mxGeometry relative="1" as="geometry" />
        </mxCell>
        <mxCell id="g-R0QMSOQ9w9aksDa-eE-38" value="Xoá câu hỏi khỏi bộ đề thi" style="ellipse;whiteSpace=wrap;html=1;" vertex="1" parent="1">
          <mxGeometry x="580" y="890" width="120" height="80" as="geometry" />
        </mxCell>
        <mxCell id="g-R0QMSOQ9w9aksDa-eE-39" value="Cập nhật thông tin các câu hỏi" style="ellipse;whiteSpace=wrap;html=1;" vertex="1" parent="1">
          <mxGeometry x="580" y="980" width="120" height="80" as="geometry" />
        </mxCell>
        <mxCell id="g-R0QMSOQ9w9aksDa-eE-40" style="rounded=0;orthogonalLoop=1;jettySize=auto;html=1;entryX=0.967;entryY=0.325;entryDx=0;entryDy=0;entryPerimeter=0;dashed=1;exitX=0;exitY=0.5;exitDx=0;exitDy=0;" edge="1" parent="1" source="g-R0QMSOQ9w9aksDa-eE-36" target="g-R0QMSOQ9w9aksDa-eE-35">
          <mxGeometry relative="1" as="geometry" />
        </mxCell>
        <mxCell id="g-R0QMSOQ9w9aksDa-eE-41" style="rounded=0;orthogonalLoop=1;jettySize=auto;html=1;entryX=0.958;entryY=0.75;entryDx=0;entryDy=0;entryPerimeter=0;dashed=1;" edge="1" parent="1" source="g-R0QMSOQ9w9aksDa-eE-39" target="g-R0QMSOQ9w9aksDa-eE-35">
          <mxGeometry relative="1" as="geometry" />
        </mxCell>
        <mxCell id="g-R0QMSOQ9w9aksDa-eE-42" value="&amp;lt;&amp;lt;extend&amp;gt;&amp;gt;" style="text;html=1;align=center;verticalAlign=middle;resizable=0;points=[];autosize=1;strokeColor=none;fillColor=none;" vertex="1" parent="1">
          <mxGeometry x="465" y="830" width="90" height="30" as="geometry" />
        </mxCell>
        <mxCell id="g-R0QMSOQ9w9aksDa-eE-43" value="&amp;lt;&amp;lt;extend&amp;gt;&amp;gt;" style="text;html=1;align=center;verticalAlign=middle;resizable=0;points=[];autosize=1;strokeColor=none;fillColor=none;" vertex="1" parent="1">
          <mxGeometry x="490" y="880" width="90" height="30" as="geometry" />
        </mxCell>
        <mxCell id="g-R0QMSOQ9w9aksDa-eE-44" value="&amp;lt;&amp;lt;extend&amp;gt;&amp;gt;" style="text;html=1;align=center;verticalAlign=middle;resizable=0;points=[];autosize=1;strokeColor=none;fillColor=none;" vertex="1" parent="1">
          <mxGeometry x="470" y="970" width="90" height="30" as="geometry" />
        </mxCell>
        <mxCell id="g-R0QMSOQ9w9aksDa-eE-46" value="" style="endArrow=none;html=1;rounded=0;entryX=-0.017;entryY=0.425;entryDx=0;entryDy=0;entryPerimeter=0;" edge="1" parent="1" target="g-R0QMSOQ9w9aksDa-eE-35">
          <mxGeometry width="50" height="50" relative="1" as="geometry">
            <mxPoint x="210" y="590" as="sourcePoint" />
            <mxPoint x="375" y="600" as="targetPoint" />
          </mxGeometry>
        </mxCell>
        <mxCell id="g-R0QMSOQ9w9aksDa-eE-47" value="Đăng nhập" style="ellipse;whiteSpace=wrap;html=1;" vertex="1" parent="1">
          <mxGeometry x="1200" y="310" width="120" height="80" as="geometry" />
        </mxCell>
        <mxCell id="g-R0QMSOQ9w9aksDa-eE-48" value="Đăng ký tài khoản" style="ellipse;whiteSpace=wrap;html=1;" vertex="1" parent="1">
          <mxGeometry x="1200" y="430" width="120" height="80" as="geometry" />
        </mxCell>
        <mxCell id="g-R0QMSOQ9w9aksDa-eE-49" value="" style="endArrow=none;html=1;rounded=0;entryX=0;entryY=0.5;entryDx=0;entryDy=0;" edge="1" parent="1" target="g-R0QMSOQ9w9aksDa-eE-47">
          <mxGeometry width="50" height="50" relative="1" as="geometry">
            <mxPoint x="1120" y="570" as="sourcePoint" />
            <mxPoint x="1090" y="620" as="targetPoint" />
          </mxGeometry>
        </mxCell>
        <mxCell id="g-R0QMSOQ9w9aksDa-eE-50" value="" style="endArrow=none;html=1;rounded=0;entryX=0;entryY=0.5;entryDx=0;entryDy=0;" edge="1" parent="1" target="g-R0QMSOQ9w9aksDa-eE-48">
          <mxGeometry width="50" height="50" relative="1" as="geometry">
            <mxPoint x="1120" y="570" as="sourcePoint" />
            <mxPoint x="1210" y="360" as="targetPoint" />
          </mxGeometry>
        </mxCell>
        <mxCell id="g-R0QMSOQ9w9aksDa-eE-51" value="Thi trắc nghiệm" style="ellipse;whiteSpace=wrap;html=1;" vertex="1" parent="1">
          <mxGeometry x="1200" y="540" width="120" height="80" as="geometry" />
        </mxCell>
        <mxCell id="g-R0QMSOQ9w9aksDa-eE-52" value="Đăng ký môn thi" style="ellipse;whiteSpace=wrap;html=1;" vertex="1" parent="1">
          <mxGeometry x="1390" y="365" width="120" height="50" as="geometry" />
        </mxCell>
        <mxCell id="g-R0QMSOQ9w9aksDa-eE-53" value="Chọn mức độ đề thi" style="ellipse;whiteSpace=wrap;html=1;" vertex="1" parent="1">
          <mxGeometry x="1390" y="450" width="120" height="50" as="geometry" />
        </mxCell>
        <mxCell id="g-R0QMSOQ9w9aksDa-eE-54" value="Chọn đề thi" style="ellipse;whiteSpace=wrap;html=1;" vertex="1" parent="1">
          <mxGeometry x="1390" y="545" width="120" height="50" as="geometry" />
        </mxCell>
        <mxCell id="g-R0QMSOQ9w9aksDa-eE-55" value="Làm bài thi" style="ellipse;whiteSpace=wrap;html=1;" vertex="1" parent="1">
          <mxGeometry x="1390" y="630" width="120" height="50" as="geometry" />
        </mxCell>
        <mxCell id="g-R0QMSOQ9w9aksDa-eE-56" value="Nộp bài thi" style="ellipse;whiteSpace=wrap;html=1;" vertex="1" parent="1">
          <mxGeometry x="1390" y="720" width="120" height="50" as="geometry" />
        </mxCell>
        <mxCell id="g-R0QMSOQ9w9aksDa-eE-57" value="Xem kết quả thi" style="ellipse;whiteSpace=wrap;html=1;" vertex="1" parent="1">
          <mxGeometry x="1390" y="795" width="120" height="50" as="geometry" />
        </mxCell>
        <mxCell id="g-R0QMSOQ9w9aksDa-eE-60" style="rounded=0;orthogonalLoop=1;jettySize=auto;html=1;dashed=1;exitX=0;exitY=0.5;exitDx=0;exitDy=0;entryX=0.91;entryY=0.217;entryDx=0;entryDy=0;entryPerimeter=0;" edge="1" parent="1" source="g-R0QMSOQ9w9aksDa-eE-53" target="g-R0QMSOQ9w9aksDa-eE-51">
          <mxGeometry relative="1" as="geometry">
            <mxPoint x="1411" y="531" as="sourcePoint" />
            <mxPoint x="1320" y="519" as="targetPoint" />
          </mxGeometry>
        </mxCell>
        <mxCell id="g-R0QMSOQ9w9aksDa-eE-61" style="rounded=0;orthogonalLoop=1;jettySize=auto;html=1;entryX=1;entryY=0.5;entryDx=0;entryDy=0;dashed=1;exitX=0;exitY=0.5;exitDx=0;exitDy=0;" edge="1" parent="1" source="g-R0QMSOQ9w9aksDa-eE-54" target="g-R0QMSOQ9w9aksDa-eE-51">
          <mxGeometry relative="1" as="geometry">
            <mxPoint x="1421" y="541" as="sourcePoint" />
            <mxPoint x="1330" y="529" as="targetPoint" />
          </mxGeometry>
        </mxCell>
        <mxCell id="g-R0QMSOQ9w9aksDa-eE-62" style="rounded=0;orthogonalLoop=1;jettySize=auto;html=1;entryX=0.813;entryY=0.092;entryDx=0;entryDy=0;dashed=1;exitX=0;exitY=0.5;exitDx=0;exitDy=0;entryPerimeter=0;" edge="1" parent="1" source="g-R0QMSOQ9w9aksDa-eE-52" target="g-R0QMSOQ9w9aksDa-eE-51">
          <mxGeometry relative="1" as="geometry">
            <mxPoint x="1431" y="551" as="sourcePoint" />
            <mxPoint x="1340" y="539" as="targetPoint" />
          </mxGeometry>
        </mxCell>
        <mxCell id="g-R0QMSOQ9w9aksDa-eE-63" style="rounded=0;orthogonalLoop=1;jettySize=auto;html=1;entryX=0.986;entryY=0.644;entryDx=0;entryDy=0;dashed=1;exitX=0;exitY=0.5;exitDx=0;exitDy=0;entryPerimeter=0;" edge="1" parent="1" source="g-R0QMSOQ9w9aksDa-eE-55" target="g-R0QMSOQ9w9aksDa-eE-51">
          <mxGeometry relative="1" as="geometry">
            <mxPoint x="1441" y="561" as="sourcePoint" />
            <mxPoint x="1350" y="549" as="targetPoint" />
          </mxGeometry>
        </mxCell>
        <mxCell id="g-R0QMSOQ9w9aksDa-eE-64" style="rounded=0;orthogonalLoop=1;jettySize=auto;html=1;entryX=1;entryY=1;entryDx=0;entryDy=0;dashed=1;exitX=0;exitY=0.5;exitDx=0;exitDy=0;" edge="1" parent="1" source="g-R0QMSOQ9w9aksDa-eE-56" target="g-R0QMSOQ9w9aksDa-eE-51">
          <mxGeometry relative="1" as="geometry">
            <mxPoint x="1451" y="571" as="sourcePoint" />
            <mxPoint x="1360" y="559" as="targetPoint" />
          </mxGeometry>
        </mxCell>
        <mxCell id="g-R0QMSOQ9w9aksDa-eE-65" style="rounded=0;orthogonalLoop=1;jettySize=auto;html=1;dashed=1;exitX=0;exitY=0.5;exitDx=0;exitDy=0;" edge="1" parent="1" source="g-R0QMSOQ9w9aksDa-eE-57" target="g-R0QMSOQ9w9aksDa-eE-51">
          <mxGeometry relative="1" as="geometry">
            <mxPoint x="1461" y="581" as="sourcePoint" />
            <mxPoint x="1370" y="569" as="targetPoint" />
          </mxGeometry>
        </mxCell>
        <mxCell id="g-R0QMSOQ9w9aksDa-eE-66" value="&amp;lt;&amp;lt;extend&amp;gt;&amp;gt;" style="text;html=1;align=center;verticalAlign=middle;resizable=0;points=[];autosize=1;strokeColor=none;fillColor=none;" vertex="1" parent="1">
          <mxGeometry x="1290" y="410" width="90" height="30" as="geometry" />
        </mxCell>
        <mxCell id="g-R0QMSOQ9w9aksDa-eE-67" value="&amp;lt;&amp;lt;extend&amp;gt;&amp;gt;" style="text;html=1;align=center;verticalAlign=middle;resizable=0;points=[];autosize=1;strokeColor=none;fillColor=none;" vertex="1" parent="1">
          <mxGeometry x="1340" y="515" width="90" height="30" as="geometry" />
        </mxCell>
        <mxCell id="g-R0QMSOQ9w9aksDa-eE-68" value="&amp;lt;&amp;lt;extend&amp;gt;&amp;gt;" style="text;html=1;align=center;verticalAlign=middle;resizable=0;points=[];autosize=1;strokeColor=none;fillColor=none;" vertex="1" parent="1">
          <mxGeometry x="1330" y="570" width="90" height="30" as="geometry" />
        </mxCell>
        <mxCell id="g-R0QMSOQ9w9aksDa-eE-69" value="&amp;lt;&amp;lt;extend&amp;gt;&amp;gt;" style="text;html=1;align=center;verticalAlign=middle;resizable=0;points=[];autosize=1;strokeColor=none;fillColor=none;" vertex="1" parent="1">
          <mxGeometry x="1310" y="620" width="90" height="30" as="geometry" />
        </mxCell>
        <mxCell id="g-R0QMSOQ9w9aksDa-eE-70" value="&amp;lt;&amp;lt;extend&amp;gt;&amp;gt;" style="text;html=1;align=center;verticalAlign=middle;resizable=0;points=[];autosize=1;strokeColor=none;fillColor=none;" vertex="1" parent="1">
          <mxGeometry x="1310" y="660" width="90" height="30" as="geometry" />
        </mxCell>
        <mxCell id="g-R0QMSOQ9w9aksDa-eE-71" value="&amp;lt;&amp;lt;extend&amp;gt;&amp;gt;" style="text;html=1;align=center;verticalAlign=middle;resizable=0;points=[];autosize=1;strokeColor=none;fillColor=none;" vertex="1" parent="1">
          <mxGeometry x="1290" y="720" width="90" height="30" as="geometry" />
        </mxCell>
        <mxCell id="g-R0QMSOQ9w9aksDa-eE-72" value="" style="endArrow=none;html=1;rounded=0;entryX=0;entryY=0.5;entryDx=0;entryDy=0;" edge="1" parent="1" target="g-R0QMSOQ9w9aksDa-eE-51">
          <mxGeometry width="50" height="50" relative="1" as="geometry">
            <mxPoint x="1120" y="570" as="sourcePoint" />
            <mxPoint x="1210" y="480" as="targetPoint" />
          </mxGeometry>
        </mxCell>
        <mxCell id="g-R0QMSOQ9w9aksDa-eE-73" value="Tìm kiếm" style="ellipse;whiteSpace=wrap;html=1;" vertex="1" parent="1">
          <mxGeometry x="1200" y="820" width="120" height="80" as="geometry" />
        </mxCell>
        <mxCell id="g-R0QMSOQ9w9aksDa-eE-74" value="Tìm kiếm thí sinh" style="ellipse;whiteSpace=wrap;html=1;" vertex="1" parent="1">
          <mxGeometry x="1390" y="870" width="120" height="50" as="geometry" />
        </mxCell>
        <mxCell id="g-R0QMSOQ9w9aksDa-eE-75" value="Tìm kiếm câu hỏi (theo tiêu chí)" style="ellipse;whiteSpace=wrap;html=1;" vertex="1" parent="1">
          <mxGeometry x="1390" y="940" width="120" height="50" as="geometry" />
        </mxCell>
        <mxCell id="g-R0QMSOQ9w9aksDa-eE-76" value="Tìm kiếm bộ đề thi (theo tiêu chí)" style="ellipse;whiteSpace=wrap;html=1;" vertex="1" parent="1">
          <mxGeometry x="1390" y="1010" width="120" height="50" as="geometry" />
        </mxCell>
        <mxCell id="g-R0QMSOQ9w9aksDa-eE-77" value="Làm lại bài thi&amp;nbsp;" style="ellipse;whiteSpace=wrap;html=1;" vertex="1" parent="1">
          <mxGeometry x="1200" y="980" width="120" height="80" as="geometry" />
        </mxCell>
        <mxCell id="g-R0QMSOQ9w9aksDa-eE-78" style="rounded=0;orthogonalLoop=1;jettySize=auto;html=1;dashed=1;entryX=0.95;entryY=0.663;entryDx=0;entryDy=0;entryPerimeter=0;exitX=0;exitY=0.5;exitDx=0;exitDy=0;" edge="1" parent="1" source="g-R0QMSOQ9w9aksDa-eE-74" target="g-R0QMSOQ9w9aksDa-eE-73">
          <mxGeometry relative="1" as="geometry">
            <mxPoint x="1380" y="890" as="sourcePoint" />
            <mxPoint x="1290" y="628" as="targetPoint" />
          </mxGeometry>
        </mxCell>
        <mxCell id="g-R0QMSOQ9w9aksDa-eE-79" style="rounded=0;orthogonalLoop=1;jettySize=auto;html=1;dashed=1;entryX=0.9;entryY=0.738;entryDx=0;entryDy=0;entryPerimeter=0;exitX=0;exitY=0.5;exitDx=0;exitDy=0;" edge="1" parent="1" source="g-R0QMSOQ9w9aksDa-eE-75" target="g-R0QMSOQ9w9aksDa-eE-73">
          <mxGeometry relative="1" as="geometry">
            <mxPoint x="1400" y="905" as="sourcePoint" />
            <mxPoint x="1324" y="883" as="targetPoint" />
          </mxGeometry>
        </mxCell>
        <mxCell id="g-R0QMSOQ9w9aksDa-eE-80" style="rounded=0;orthogonalLoop=1;jettySize=auto;html=1;dashed=1;entryX=0.775;entryY=0.938;entryDx=0;entryDy=0;entryPerimeter=0;exitX=0;exitY=0.5;exitDx=0;exitDy=0;" edge="1" parent="1" source="g-R0QMSOQ9w9aksDa-eE-76" target="g-R0QMSOQ9w9aksDa-eE-73">
          <mxGeometry relative="1" as="geometry">
            <mxPoint x="1400" y="975" as="sourcePoint" />
            <mxPoint x="1319" y="899" as="targetPoint" />
          </mxGeometry>
        </mxCell>
        <mxCell id="g-R0QMSOQ9w9aksDa-eE-81" value="&amp;lt;&amp;lt;extend&amp;gt;&amp;gt;" style="text;html=1;align=center;verticalAlign=middle;resizable=0;points=[];autosize=1;strokeColor=none;fillColor=none;" vertex="1" parent="1">
          <mxGeometry x="1320" y="850" width="90" height="30" as="geometry" />
        </mxCell>
        <mxCell id="g-R0QMSOQ9w9aksDa-eE-82" value="&amp;lt;&amp;lt;extend&amp;gt;&amp;gt;" style="text;html=1;align=center;verticalAlign=middle;resizable=0;points=[];autosize=1;strokeColor=none;fillColor=none;" vertex="1" parent="1">
          <mxGeometry x="1330" y="895" width="90" height="30" as="geometry" />
        </mxCell>
        <mxCell id="g-R0QMSOQ9w9aksDa-eE-83" value="&amp;lt;&amp;lt;extend&amp;gt;&amp;gt;" style="text;html=1;align=center;verticalAlign=middle;resizable=0;points=[];autosize=1;strokeColor=none;fillColor=none;" vertex="1" parent="1">
          <mxGeometry x="1300" y="950" width="90" height="30" as="geometry" />
        </mxCell>
        <mxCell id="g-R0QMSOQ9w9aksDa-eE-85" value="" style="endArrow=none;html=1;rounded=0;entryX=0;entryY=0.5;entryDx=0;entryDy=0;" edge="1" parent="1" target="g-R0QMSOQ9w9aksDa-eE-73">
          <mxGeometry width="50" height="50" relative="1" as="geometry">
            <mxPoint x="1120" y="570" as="sourcePoint" />
            <mxPoint x="1210" y="590" as="targetPoint" />
          </mxGeometry>
        </mxCell>
        <mxCell id="g-R0QMSOQ9w9aksDa-eE-86" value="" style="endArrow=none;html=1;rounded=0;entryX=0;entryY=0.5;entryDx=0;entryDy=0;" edge="1" parent="1" target="g-R0QMSOQ9w9aksDa-eE-77">
          <mxGeometry width="50" height="50" relative="1" as="geometry">
            <mxPoint x="1120" y="570" as="sourcePoint" />
            <mxPoint x="1220" y="600" as="targetPoint" />
          </mxGeometry>
        </mxCell>
      </root>
    </mxGraphModel>
  </diagram>
</mxfile>
